<svg xmlns="http://www.w3.org/2000/svg" xmlns:xlink="http://www.w3.org/1999/xlink" viewBox="0 0 551.9 322.3"><path d="M22 304.9l23.4-52.1h16l-34.3 69.5H12.5L0 252.8h15zm60.9-52.1l8.6 50.3 25.9-50.3H136l-12.1 69.5h-14l3.4-19.8 6.8-30.9-26.6 50.7h-9.6l-9.3-52.5-4.5 34.2-3.2 18.3h-14L65 252.8z"/><defs><path id="a" d="M-181.5-123.2h841.9v595.3h-841.9z"/></defs><clipPath id="b"><use xlink:href="#a" overflow="visible"/></clipPath><path d="M152.9 297.8l-4.3 24.5h-14l12.1-69.5H171c7.5 0 13.4 2.1 17.7 6.3 4.3 4.2 6.2 9.6 5.6 16.3-.5 6.8-3.3 12.2-8.5 16.3-5.2 4.1-11.8 6.1-19.8 6.1h-13.1zm2-11.6l11.6.1c3.8 0 6.9-1 9.4-2.9s4-4.6 4.4-7.9c.5-3.3-.1-5.9-1.6-7.9s-3.8-3-6.8-3.1h-13.2l-3.8 21.7zm74.3 21.8H205l-7.2 14.3h-15.4l37.1-69.5h12.9l13.2 69.5h-14.3l-2.1-14.3zm-18.5-11.6h16.8l-3.9-25.9-12.9 25.9zm99.2-43.6l-7.8 45.8c-1.1 7.7-4.3 13.7-9.5 18.2-5.3 4.5-11.8 6.6-19.7 6.5-4.9-.1-9.2-1.2-12.8-3.2-3.6-2.1-6.3-4.9-8-8.7-1.7-3.7-2.3-8-1.8-12.7l7.8-45.9h14l-7.8 45.9c-.2 1.8-.2 3.5 0 5 .6 5.2 3.7 7.8 9.2 8 3.9.1 7.2-1 9.7-3.2 2.5-2.3 4.1-5.6 4.9-9.8l7.8-45.9h14zm56.7 11.6H346l-10 57.9h-14l10-57.9h-20.4l2.1-11.6h55zm20.7 58.9c-4.6-.1-8.7-1.2-12.2-3.3-3.5-2.1-6.3-5.1-8.4-9-2.1-3.9-3.2-8.4-3.6-13.5-.4-5.2.2-10.8 1.7-16.7 1.5-5.9 3.8-11.1 7.1-15.6 3.2-4.5 7.1-7.8 11.4-10.1 4.4-2.2 9.1-3.3 14.2-3.2 4.7.1 8.8 1.2 12.3 3.3 3.5 2.1 6.3 5.2 8.3 9.1 2 4 3.1 8.5 3.4 13.5.3 5.6-.3 11.4-1.8 17.3s-3.9 11-7.1 15.4c-3.2 4.3-7 7.6-11.3 9.7s-9 3.2-14 3.1m19.8-37.6l.4-4.5c.3-5.7-.4-10-2.3-12.9-1.8-2.9-4.6-4.5-8.3-4.6-5.8-.2-10.4 2.4-13.9 7.7-3.4 5.3-5.4 12.8-5.8 22.4-.3 5.6.4 10 2.2 13 1.8 3 4.6 4.6 8.4 4.7 5 .2 9.1-1.7 12.4-5.8 3.3-4.1 5.4-9.9 6.4-17.5l.5-2.5z" clip-path="url(#b)"/><path d="M201.8 66.5l350 20.9L238 106.5l212 19.1-176.1 19.1 100.5 9.4-77.1 9.7-6.6 17.8c-1 2.8-2.6 5.4-4.7 7.5-8.8 9.3-28.1 31.3-36 36.5-11.1 11.1-12.1 5.5-20.4 14.6-.5 2.5-1 5.1-1.5 7.7-6.4 1.9-12.7 3.8-19.1 5.8 3.7-7 7.5-14 11.3-20.9 4.3-6.8 11.7-9.3 17.9-12.3 11.4-8 23.7-16.7 21.5-29-8.6 7.7-26.1 4-38.1 9.5-3.1 4.9-5.9 8.7-10.2 9.7.4 3 .9 5.9 1.2 8.9-5.5 4-10.9 8.1-16.3 12.1 2.2-12.4 1.8-27.9 12.5-33.4 8.6-6.5 25.7-9.2 28.7-13.5 6.5-12.7 3.1-25.9.6-38.9-13.2 12.9-41.9 16.4-64 11.5-6.7 10.2-19.9 12.1-29.8 18.2 1.7 4 1.2 7.7.7 11.2 5 4.2 7.5 9 15.1 12.7 4-1 7.2-1 10.7 1.1 4.2-.6 9.1-3.1 9.1-3.1l16.6 4.7s-5.6 4.4-10.9 6c-11.7 3.5-23.5 4.6-32.4-2.4-6.3-5.3-12.6-10.6-18.8-15.9-4.5-2-10.9-9.2-6.5-14.9 3.7-5.8 10.2-10.2 11-17.4-8.1-.4-16.3-1-24.4-1.5-3.2 2.7-6.9 3.5-10.6 3.9l3.4 21.7c3.5 2.7 5.7 5.4 6 9.7l8.7 3.3c.4 5.9.8 11 1.1 16.9-6.6-6.1-13.1-12-19.5-17.9-2.7-2.5-3.9-5.1-4-8.7-1.8-9.3-5.4-18.3-8.7-26.9-2.1-4.1 1.2-7.1 3.8-9 3.8-2.5 4.8-5.3 10.2-5.3 8.9 0 18.7-1.5 25-5.7-3.9-9-4.2-19.6-5.6-30.1-5.9-13.3-11.8-18.9-18.4-28-4.8-6.6-5.6-13.7-10.1-19.5-8.3 5.2-17.5 6.7-25.4 3.6-5.5 3-10.9 6-16.4 9.1-3 4.7-6.1 2.9-9.7 1.8-4.9-.1-5.9-4-6.7-7.9-2.4-10.7 6.5-11.7 9.7-17.6 3.9-4.1 7.7-8.2 11.5-12.2 2.5-9.8 7.2-14.9 13.3-15.8 2.2-7.5 4.6-7.7 9.1-9.3.3-3.7-2-11.8.9-11 3.1 1.4 4.4 5.9 6.7 8.8C93.6 7.4 98.3-.9 100.6.4c3 1.6 2.2 5.2 1.8 10.4l306.5 8.5-241.4 11 313.8 17-279.5 19.2z" clip-path="url(#b)" fill-rule="evenodd" clip-rule="evenodd" fill="#e30613"/></svg>